<svg width="17" height="17" viewBox="0 0 17 17" fill="none" xmlns="http://www.w3.org/2000/svg">
<rect width="17" height="17" rx="4" fill="white"/>
<path d="M5.25282 12.923V7.81391C5.25282 7.03432 4.62084 6.40234 3.84125 6.40234C3.06167 6.40234 2.42969 7.03432 2.42969 7.81391V12.923C2.42969 13.7026 3.06167 14.3346 3.84125 14.3346C4.62084 14.3346 5.25282 13.7026 5.25282 12.923Z" fill="black"/>
<path d="M3.84105 2.42969C2.9567 2.42969 2.25942 3.23126 2.4635 4.13304C2.58255 4.65072 3.00772 5.06821 3.55194 5.18511C4.47031 5.3688 5.25262 4.68412 5.25262 3.83245C5.25262 3.04757 4.62337 2.42969 3.84105 2.42969Z" fill="black"/>
<path d="M14.5562 8.82485C14.3691 7.32189 13.6038 6.38672 11.546 6.38672C10.5731 6.38672 9.99156 6.48277 9.61106 6.73386C9.46269 6.83176 9.16506 6.73541 9.16506 6.55765C9.16506 6.46325 9.08853 6.38672 8.99412 6.38672H8.0171C7.3831 6.38672 6.86914 6.90068 6.86914 7.53468V13.137C6.86914 13.7898 7.39833 14.319 8.05111 14.319C8.7039 14.319 9.23309 13.7898 9.23309 13.137V10.1775C9.23309 9.14214 9.43717 8.35726 10.7467 8.35726C12.0392 8.35726 12.1412 9.32583 12.1412 10.2443V11.9037C12.1412 13.2469 13.2301 14.3357 14.5732 14.3357C14.5562 14.3357 14.5902 9.17554 14.5562 8.82485Z" fill="black"/>
</svg>
