<svg width="15" height="16" viewBox="0 0 15 16" fill="none" xmlns="http://www.w3.org/2000/svg">
<g clip-path="url(#clip0)">
<path d="M3.4874 5.87048H0V15.6692H3.4874V5.87048Z" fill="white"/>
<path d="M1.74294 0.96106C0.650499 0.96106 -0.210846 1.95124 0.0412548 3.0652C0.188314 3.70469 0.713524 4.22041 1.38579 4.36481C2.52025 4.59173 3.48663 3.74595 3.48663 2.69388C3.48663 1.72433 2.70932 0.96106 1.74294 0.96106Z" fill="white"/>
<path d="M14.9782 8.86154C14.7471 7.00494 13.8017 5.84973 11.2597 5.84973C9.45301 5.84973 8.73872 6.11791 8.31856 6.9018V5.84973H5.48242V15.6484H8.40259V10.5325C8.40259 9.25348 8.65469 8.28393 10.2723 8.28393C11.869 8.28393 11.995 9.4804 11.995 10.615V15.669H14.9992C14.9782 15.669 15.0202 9.29474 14.9782 8.86154Z" fill="white"/>
</g>
<defs>
<clipPath id="clip0">
<rect width="15" height="14.7083" fill="white" transform="translate(0 0.96106)"/>
</clipPath>
</defs>
</svg>
