<svg width="16" height="14" viewBox="0 0 16 14" fill="none" xmlns="http://www.w3.org/2000/svg">
<g clip-path="url(#clip0)">
<path d="M15.924 2.5157C15.3755 2.74065 14.7892 2.89062 14.184 2.94685C14.8271 2.57194 15.3377 1.99081 15.5836 1.29721C15.6025 1.25972 15.5457 1.22223 15.5079 1.24097C14.9027 1.5784 14.2408 1.8221 13.5221 1.95332C12.9547 1.3347 12.0847 0.94104 11.1391 0.94104C9.32352 0.94104 7.84834 2.38448 7.84834 4.16534C7.84834 4.40904 7.88617 4.67148 7.9429 4.89643C5.18167 4.76521 2.76087 3.49049 1.13439 1.54091C1.13439 1.52216 1.11548 1.54091 1.09657 1.54091C0.831793 2.00956 0.661581 2.55319 0.661581 3.13431C0.661581 4.22158 1.22896 5.19636 2.08002 5.77749C2.09893 5.79623 2.08002 5.81498 2.06111 5.81498C1.55047 5.79623 1.07766 5.64627 0.661581 5.42132C0.642668 5.42132 0.642668 5.42132 0.642668 5.44006C0.642668 5.59003 0.699406 6.20864 0.869618 6.62105C1.28569 7.63333 2.17458 8.40192 3.29042 8.60812C3.00673 8.68311 2.72305 8.7206 2.42045 8.7206C2.21241 8.7206 2.02328 8.70185 1.83416 8.66436C1.81524 8.66436 1.81524 8.68311 1.81524 8.68311C2.25023 9.93908 3.42281 10.8389 4.84125 10.8951C4.86016 10.8951 4.86016 10.9139 4.86016 10.9326C3.74432 11.7762 2.32588 12.2823 0.812881 12.2823C0.548106 12.2823 0.28333 12.2636 0.0185547 12.2448C1.45591 13.1634 3.19586 13.6883 5.04929 13.6883C7.62139 13.6883 9.70177 12.8072 11.2337 11.4762C12.7845 10.1265 13.8058 8.30819 14.2219 6.47109C14.3732 5.81498 14.4488 5.15887 14.4488 4.52151C14.4488 4.39029 14.4488 4.24032 14.4299 4.1091C15.0351 3.69669 15.5457 3.1718 15.9807 2.59068C16.0186 2.55319 15.9807 2.49695 15.924 2.5157Z" fill="white"/>
</g>
<defs>
<clipPath id="clip0">
<rect width="16" height="12.7472" fill="white" transform="translate(0 0.94165)"/>
</clipPath>
</defs>
</svg>
