<svg width="19" height="16" viewBox="0 0 19 16" fill="none" xmlns="http://www.w3.org/2000/svg">
<g clip-path="url(#clip0)">
<path d="M14.3223 0.96106H4.67773C2.10235 0.96106 0 3.18119 0 5.90084V10.7296C0 13.4493 2.10235 15.6694 4.67773 15.6694H14.3223C16.8976 15.6694 19 13.4493 19 10.7296V5.90084C19 3.18119 16.8976 0.96106 14.3223 0.96106ZM13.3499 8.37073L7.0166 11.9784C6.80636 12.0894 6.54357 11.9507 6.54357 11.6732V4.40226C6.54357 4.15249 6.80636 3.98598 7.0166 4.09699L13.3499 7.73245C13.5864 7.89896 13.5864 8.23197 13.3499 8.37073Z" fill="white"/>
</g>
<defs>
<clipPath id="clip0">
<rect width="19" height="14.7083" fill="white" transform="translate(0 0.96106)"/>
</clipPath>
</defs>
</svg>
